<svg xmlns="http://www.w3.org/2000/svg" viewBox="0 0 233 233"><defs><style>.cls-1{fill:#fafafa;}.cls-2{fill:none;stroke:#000;stroke-linecap:round;stroke-linejoin:round;stroke-width:2px;}</style></defs><title>bathroom-item</title><g id="Слой_2" data-name="Слой 2"><g id="Слой_1-2" data-name="Слой 1"><rect class="cls-1" width="233" height="233" rx="8" ry="8"/><path class="cls-2" d="M99.43,89.07V73.86A1.86,1.86,0,0,1,101.29,72h30.41a1.86,1.86,0,0,1,1.86,1.86V89.07"/><path class="cls-2" d="M99.43,89.15l-25.5,25.5c-1.17,1.17-.77,2.12.88,2.12h83.37c1.65,0,2-1,.88-2.12l-25.5-25.5"/><line class="cls-2" x1="78.35" y1="122.85" x2="78.35" y2="143.9"/><line class="cls-2" x1="96.76" y1="122.85" x2="96.76" y2="143.9"/><line class="cls-2" x1="116.5" y1="124.17" x2="116.5" y2="143.9"/><line class="cls-2" x1="134.91" y1="122.85" x2="134.91" y2="143.9"/><line class="cls-2" x1="154.64" y1="122.85" x2="154.64" y2="143.9"/><line class="cls-2" x1="88.87" y1="143.9" x2="88.87" y2="161"/><line class="cls-2" x1="107.29" y1="143.9" x2="107.29" y2="161"/><line class="cls-2" x1="125.7" y1="143.9" x2="125.7" y2="161"/><line class="cls-2" x1="144.12" y1="143.9" x2="144.12" y2="161"/></g></g></svg>