<?xml version="1.0" encoding="utf-8"?>
<!-- Generator: Adobe Illustrator 22.0.1, SVG Export Plug-In . SVG Version: 6.00 Build 0)  -->
<svg version="1.2" baseProfile="tiny" id="Слой_1"
	 xmlns="http://www.w3.org/2000/svg" xmlns:xlink="http://www.w3.org/1999/xlink" x="0px" y="0px" viewBox="0 0 279.6 89"
	 xml:space="preserve">
<g>
	<path fill="#FFFFFF" d="M56.5,48.8L52,38.4l-4.7,10.3H56.5z M58.4,53.2h-13L42,60.6h-5.1l15.3-32.4l14.6,32.4h-5.1L58.4,53.2z"/>
	<path fill="#FFFFFF" d="M131.1,48.8l-4.6-10.3l-4.7,10.3H131.1z M133,53.2h-13l-3.4,7.5h-5.1l15.3-32.4l14.6,32.4h-5.1L133,53.2z"
		/>
	<polygon fill="#FF8B00" points="209,63.2 209,28.3 226,54.2 215.1,46.9 	"/>
	<rect x="187.9" y="30.3" fill="#FFFFFF" width="4.8" height="30.9"/>
	<polygon fill="#FFFFFF" points="252.5,61.2 252.5,28.3 274.8,51.7 274.8,30.3 279.6,30.3 279.6,63.1 257.2,39.7 257.2,61.2 	"/>
	<polygon fill="#FFFFFF" points="231.3,30.3 231.3,58 236.1,63.1 236.1,30.3 	"/>
	<path fill="#FFFFFF" d="M159,44.5h1.5c1.3,0,6.4-0.1,6.4-5c0-4.4-4-4.7-6.2-4.7H159V44.5z M159.7,30.3c2.5,0,5.6,0.1,8.2,1.8
		c3,2,3.7,5.3,3.7,7.3c0,4.4-2.8,7.7-6.9,8.6l9.7,13.2h-5.7l-8.8-12.7H159v12.7h-4.8V30.3H159.7z"/>
	<path fill="#FFFFFF" d="M110.3,79c0.1,0,0.2,0.1,0.2,0.2v9.4c0,0.1-0.1,0.2-0.2,0.2h-1.7c-0.1,0-0.2-0.1-0.2-0.2v-3.8H104v3.8
		c0,0.1-0.1,0.2-0.2,0.2h-1.6c-0.1,0-0.2-0.1-0.2-0.2v-9.4c0-0.1,0.1-0.2,0.2-0.2h1.6c0.1,0,0.2,0.1,0.2,0.2V83h4.5v-3.8
		c0-0.1,0.1-0.2,0.2-0.2H110.3z"/>
	<path fill="#FFFFFF" d="M123.9,80.8c-1.8,0-3.1,1.4-3.1,3.1c0,1.8,1.3,3.1,3.1,3.1c1.8,0,3.1-1.3,3.1-3.1S125.7,80.8,123.9,80.8
		 M123.9,89c-3,0-5.3-2-5.3-5.1c0-3.1,2.3-5.1,5.3-5.1c3,0,5.3,2,5.3,5.1C129.2,87,126.8,89,123.9,89"/>
	<path fill="#FFFFFF" d="M145.7,79c0.1,0,0.2,0.1,0.2,0.2v1.4c0,0.1-0.1,0.2-0.2,0.2h-3v7.8c0,0.1-0.1,0.2-0.2,0.2h-1.7
		c-0.1,0-0.2-0.1-0.2-0.2v-7.8h-3c-0.1,0-0.2-0.1-0.2-0.2v-1.4c0-0.1,0.1-0.2,0.2-0.2H145.7z"/>
	<path fill="#FFFFFF" d="M162.2,79c0.1,0,0.2,0.1,0.2,0.2v1.4c0,0.1-0.1,0.2-0.2,0.2h-5.1V83h4.4c0.1,0,0.2,0.1,0.2,0.2v1.4
		c0,0.1-0.1,0.2-0.2,0.2h-4.4V87h5.1c0.1,0,0.2,0.1,0.2,0.2v1.4c0,0.1-0.1,0.2-0.2,0.2h-7c-0.1,0-0.2-0.1-0.2-0.2v-9.4
		c0-0.1,0.1-0.2,0.2-0.2H162.2z"/>
	<path fill="#FFFFFF" d="M173,79c0.1,0,0.2,0.1,0.2,0.2V87h4.2c0.1,0,0.2,0.1,0.2,0.2v1.4c0,0.1-0.1,0.2-0.2,0.2h-6.1
		c-0.1,0-0.2-0.1-0.2-0.2v-9.4c0-0.1,0.1-0.2,0.2-0.2H173z"/>
	<path fill="#FFFFFF" d="M21.9,44.7L21.9,44.7l-5.7,0l1.2,2.4l1,2h3.6H25c-0.7,4.5-4.3,7.8-9.2,7.8c-6,0-10.9-4.7-10.9-11.5
		c0-6.7,4.6-11.6,11-11.6c5.6,0,8.4,3.6,9.4,5l3.3-3.2c-0.9-1.3-2-2.4-3.4-3.3c-1.7-1.2-4.7-2.9-9.3-2.9c-3.4,0-7.9,0.9-11.6,4.7
		C1.4,37.2,0,41.2,0,45.3c0,4.1,1.3,8.1,4.6,11.4c2.6,2.6,6.1,4.5,11,4.5c6.4,0,9.9-3.5,11.5-5.8c2.4-3.4,2.8-6.8,2.8-9.8v-1H21.9z"
		/>
	<path fill="#FFFFFF" d="M96.5,44.7L96.5,44.7l-5.7,0l1.2,2.4l1,2h3.6h3.1c-0.7,4.5-4.3,7.8-9.2,7.8c-6,0-10.9-4.7-10.9-11.5
		c0-6.7,4.6-11.6,11-11.6c5.6,0,8.4,3.6,9.4,5l3.3-3.2c-0.9-1.3-2-2.4-3.4-3.3c-1.7-1.2-4.7-2.9-9.3-2.9c-3.4,0-7.9,0.9-11.6,4.7
		c-3,3.2-4.4,7.2-4.4,11.3c0,4.1,1.3,8.1,4.6,11.4c2.6,2.6,6.1,4.5,11,4.5c6.4,0,9.9-3.5,11.5-5.8c2.4-3.4,2.8-6.8,2.8-9.8v-1H96.5z
		"/>
	<g>
		<polygon fill="#FFFFFF" points="113.4,0 115.4,6 121.7,6 116.6,9.7 118.6,15.8 113.4,12 108.3,15.8 110.3,9.7 105.2,6 111.5,6 		
			"/>
		<polygon fill="#FFFFFF" points="131,0 133,6 139.3,6 134.2,9.7 136.1,15.8 131,12 125.9,15.8 127.8,9.7 122.7,6 129.1,6 		"/>
		<polygon fill="#FFFFFF" points="148.6,0 150.5,6 156.9,6 151.7,9.7 153.7,15.8 148.6,12 143.5,15.8 145.4,9.7 140.3,6 146.6,6 		
			"/>
		<polygon fill="#FFFFFF" points="166.1,0 168.1,6 174.4,6 169.3,9.7 171.3,15.8 166.1,12 161,15.8 163,9.7 157.9,6 164.2,6 		"/>
	</g>
</g>
</svg>
