<svg xmlns="http://www.w3.org/2000/svg" viewBox="0 0 335.38 42"><defs><style>.cls-1{fill:#fff;}.cls-2{fill:#ff8b00;}</style></defs><title>mob-logo</title><g id="Слой_2" data-name="Слой 2"><g id="Слой_1-2" data-name="Слой 1"><path class="cls-1" d="M67.83,24.71,62.37,12.3,56.69,24.71ZM70,30H54.42l-4,8.94h-6.1L62.58,0,80,38.91h-6.1Z"/><path class="cls-1" d="M157.29,24.71,151.82,12.3l-5.68,12.41Zm2.2,5.26H143.88l-4.05,8.94h-6.1L152,0l17.45,38.91h-6.1Z"/><polygon class="cls-2" points="250.68 42 250.68 0.1 271.15 31.26 258.06 22.51 250.68 42"/><rect class="cls-1" x="225.45" y="2.54" width="5.73" height="37.1"/><polygon class="cls-1" points="302.84 39.64 302.84 0.11 329.65 28.19 329.65 2.54 335.38 2.54 335.38 41.86 308.56 13.78 308.56 39.64 302.84 39.64"/><polygon class="cls-1" points="277.49 2.54 277.49 35.82 283.23 41.86 283.23 2.54 277.49 2.54"/><path class="cls-1" d="M190.72,19.56h1.75c1.54,0,7.63-.11,7.63-6,0-5.3-4.77-5.67-7.47-5.67h-1.91Zm.9-17c3,0,6.73.1,9.8,2.17a10.46,10.46,0,0,1,4.4,8.74,10.29,10.29,0,0,1-8.27,10.34l11.61,15.85h-6.89l-10.6-15.21h-1V39.64H185V2.54Z"/><path class="cls-1" d="M26.28,19.77v0H19.4l1.42,2.93L22,25h8a10.9,10.9,0,0,1-11,9.36c-7.15,0-13.09-5.68-13.09-13.83,0-8,5.47-13.93,13.25-13.93a13.38,13.38,0,0,1,11.26,6l4-3.79a16.3,16.3,0,0,0-4.05-4,18.85,18.85,0,0,0-11.2-3.52A18.67,18.67,0,0,0,5.26,7,19.35,19.35,0,0,0,0,20.56,18.72,18.72,0,0,0,5.58,34.28a17.9,17.9,0,0,0,13.25,5.36A16.27,16.27,0,0,0,32.65,32.7,19.24,19.24,0,0,0,36,20.93V19.77Z"/><path class="cls-1" d="M115.73,19.77v0h-6.88l1.42,2.93L111.42,25h8a10.9,10.9,0,0,1-11,9.36c-7.15,0-13.09-5.68-13.09-13.83,0-8,5.47-13.93,13.25-13.93a13.39,13.39,0,0,1,11.25,6l4-3.79a16.33,16.33,0,0,0-4.05-4,18.86,18.86,0,0,0-11.2-3.52A18.66,18.66,0,0,0,94.71,7a19.35,19.35,0,0,0-5.26,13.56A18.72,18.72,0,0,0,95,34.28a17.9,17.9,0,0,0,13.25,5.36,16.27,16.27,0,0,0,13.83-6.94,19.28,19.28,0,0,0,3.31-11.78V19.77Z"/></g></g></svg>