<?xml version="1.0" encoding="utf-8"?>
<!-- Generator: Adobe Illustrator 22.0.1, SVG Export Plug-In . SVG Version: 6.00 Build 0)  -->
<svg version="1.2" baseProfile="tiny" id="Слой_1"
	 xmlns="http://www.w3.org/2000/svg" xmlns:xlink="http://www.w3.org/1999/xlink" x="0px" y="0px" viewBox="0 0 233 233"
	 xml:space="preserve">
<g>
	<path fill="#FAFAFA" d="M233.1,225c0,4.4-3.6,8-8,8H8.1c-4.4,0-8-3.6-8-8V8c0-4.4,3.6-8,8-8h217c4.4,0,8,3.6,8,8V225z"/>
	<g>
		<path fill="none" stroke="#000000" stroke-width="2" stroke-linecap="round" stroke-linejoin="round" stroke-miterlimit="10" d="
			M95.6,82.7V64c0-1.3,1-2.3,2.3-2.3h37.4c1.3,0,2.3,1,2.3,2.3v18.7"/>
		<path fill="none" stroke="#000000" stroke-width="2" stroke-linecap="round" stroke-linejoin="round" stroke-miterlimit="10" d="
			M95.6,82.8l-31.9,31.9c-1.2,1.2-0.8,2.1,0.9,2.1h104c1.6,0,2-1,0.9-2.1l-31.9-31.9"/>
		
			<line fill="none" stroke="#000000" stroke-width="2" stroke-linecap="round" stroke-linejoin="round" stroke-miterlimit="10" x1="69.7" y1="124.3" x2="69.7" y2="150.2"/>
		
			<line fill="none" stroke="#000000" stroke-width="2" stroke-linecap="round" stroke-linejoin="round" stroke-miterlimit="10" x1="92.3" y1="124.3" x2="92.3" y2="150.2"/>
		
			<line fill="none" stroke="#000000" stroke-width="2" stroke-linecap="round" stroke-linejoin="round" stroke-miterlimit="10" x1="116.6" y1="125.9" x2="116.6" y2="150.2"/>
		
			<line fill="none" stroke="#000000" stroke-width="2" stroke-linecap="round" stroke-linejoin="round" stroke-miterlimit="10" x1="139.3" y1="124.3" x2="139.3" y2="150.2"/>
		
			<line fill="none" stroke="#000000" stroke-width="2" stroke-linecap="round" stroke-linejoin="round" stroke-miterlimit="10" x1="163.6" y1="124.3" x2="163.6" y2="150.2"/>
		
			<line fill="none" stroke="#000000" stroke-width="2" stroke-linecap="round" stroke-linejoin="round" stroke-miterlimit="10" x1="82.6" y1="150.2" x2="82.6" y2="171.3"/>
		
			<line fill="none" stroke="#000000" stroke-width="2" stroke-linecap="round" stroke-linejoin="round" stroke-miterlimit="10" x1="105.3" y1="150.2" x2="105.3" y2="171.3"/>
		
			<line fill="none" stroke="#000000" stroke-width="2" stroke-linecap="round" stroke-linejoin="round" stroke-miterlimit="10" x1="127.9" y1="150.2" x2="127.9" y2="171.3"/>
		
			<line fill="none" stroke="#000000" stroke-width="2" stroke-linecap="round" stroke-linejoin="round" stroke-miterlimit="10" x1="150.6" y1="150.2" x2="150.6" y2="171.3"/>
	</g>
</g>
</svg>
