<?xml version="1.0" encoding="utf-8"?>
<!-- Generator: Adobe Illustrator 22.0.1, SVG Export Plug-In . SVG Version: 6.00 Build 0)  -->
<svg version="1.2" baseProfile="tiny" id="Слой_1"
	 xmlns="http://www.w3.org/2000/svg" xmlns:xlink="http://www.w3.org/1999/xlink" x="0px" y="0px" viewBox="0 0 233 233"
	 xml:space="preserve">
<g>
	<path fill="#FAFAFA" d="M224.9,233.1H7.9c-4.4,0-8-3.6-8-8V8.1c0-4.4,3.6-8,8-8h217c4.4,0,8,3.6,8,8v217
		C232.9,229.5,229.3,233.1,224.9,233.1z"/>
	<g>
		<g>
			<path fill="none" stroke="#000000" stroke-width="2" stroke-linecap="round" stroke-linejoin="round" stroke-miterlimit="10" d="
				M137.4,111.5h12.3V82.9v37.3h0.4c7.4,0,13.5-6.1,13.5-13.5V67.4v-4.6c0-10-8.2-18.2-18.2-18.2H87.5c-10,0-18.2,8.2-18.2,18.2v4.8
				v39.1c0,7.4,6.1,13.5,13.5,13.5l0,0"/>
			
				<polyline fill="none" stroke="#000000" stroke-width="2" stroke-linecap="round" stroke-linejoin="round" stroke-miterlimit="10" points="
				128.6,111.5 82.7,111.5 82.7,81.9 82.7,120.3 			"/>
		</g>
		
			<line fill="none" stroke="#000000" stroke-width="2" stroke-linecap="round" stroke-linejoin="round" stroke-miterlimit="10" x1="133.7" y1="44.7" x2="108.7" y2="110.5"/>
		
			<line fill="none" stroke="#000000" stroke-width="2" stroke-linecap="round" stroke-linejoin="round" stroke-miterlimit="10" x1="98.8" y1="44.6" x2="116.2" y2="90"/>
		
			<polyline fill="none" stroke="#000000" stroke-width="2" stroke-linecap="round" stroke-linejoin="round" stroke-miterlimit="10" points="
			128.6,120.2 82.7,120.2 82.7,188.6 149.7,188.6 149.7,120.2 137.3,120.2 		"/>
		
			<line fill="none" stroke="#000000" stroke-width="2" stroke-linecap="round" stroke-linejoin="round" stroke-miterlimit="10" x1="108.7" y1="121.3" x2="108.7" y2="188.6"/>
		
			<rect x="128.6" y="110.2" fill="none" stroke="#000000" stroke-width="2" stroke-linecap="round" stroke-linejoin="round" stroke-miterlimit="10" width="8.7" height="34.7"/>
	</g>
</g>
</svg>
