<?xml version="1.0" encoding="utf-8"?>
<!-- Generator: Adobe Illustrator 22.0.1, SVG Export Plug-In . SVG Version: 6.00 Build 0)  -->
<svg version="1.2" baseProfile="tiny" id="Слой_1"
	 xmlns="http://www.w3.org/2000/svg" xmlns:xlink="http://www.w3.org/1999/xlink" x="0px" y="0px" viewBox="0 0 233 233"
	 xml:space="preserve">
<g>
	<path fill="#FAFAFA" d="M225.1,233.1H8.1c-4.4,0-8-3.6-8-8V8.1c0-4.4,3.6-8,8-8h217c4.4,0,8,3.6,8,8v217
		C233.1,229.5,229.5,233.1,225.1,233.1z"/>
	<g>
		
			<polyline fill="none" stroke="#000000" stroke-width="2" stroke-linecap="round" stroke-linejoin="round" stroke-miterlimit="10" points="
			44.6,143.6 44.6,109.6 188.6,109.6 188.6,143.6 		"/>
		
			<polyline fill="none" stroke="#000000" stroke-width="2" stroke-linecap="round" stroke-linejoin="round" stroke-miterlimit="10" points="
			44.6,109.6 44.6,105.6 188.6,105.6 188.6,109.6 		"/>
		<path fill="none" stroke="#000000" stroke-width="2" stroke-linecap="round" stroke-linejoin="round" stroke-miterlimit="10" d="
			M160.6,99.6h-24c-1.7,0-3-1.3-3-3l0,0c0-1.7,1.3-3,3-3h24V99.6z"/>
		
			<line fill="none" stroke="#000000" stroke-width="2" stroke-linecap="round" stroke-linejoin="round" stroke-miterlimit="10" x1="159.1" y1="105.6" x2="153.6" y2="105.6"/>
		<path fill="none" stroke="#000000" stroke-width="2" stroke-linecap="round" stroke-linejoin="round" stroke-miterlimit="10" d="
			M160.6,105.6h-31c-1.7,0-3-1.3-3-3l0,0c0-1.7,1.3-3,3-3h31V105.6z"/>
		
			<line fill="none" stroke="#000000" stroke-width="2" stroke-linecap="round" stroke-linejoin="round" stroke-miterlimit="10" x1="162.1" y1="99.6" x2="160.6" y2="99.6"/>
		
			<line fill="none" stroke="#000000" stroke-width="2" stroke-linecap="round" stroke-linejoin="round" stroke-miterlimit="10" x1="160.6" y1="105.6" x2="162.1" y2="105.6"/>
		
			<rect x="126.6" y="89.6" fill="none" stroke="#000000" stroke-width="2" stroke-linecap="round" stroke-linejoin="round" stroke-miterlimit="10" width="27" height="4"/>
		
			<line fill="none" stroke="#000000" stroke-width="2" stroke-linecap="round" stroke-linejoin="round" stroke-miterlimit="10" x1="162.1" y1="93.6" x2="160.6" y2="93.6"/>
	</g>
</g>
</svg>
