<?xml version="1.0" encoding="utf-8"?>
<!-- Generator: Adobe Illustrator 22.0.1, SVG Export Plug-In . SVG Version: 6.00 Build 0)  -->
<svg version="1.2" baseProfile="tiny" id="Слой_1"
	 xmlns="http://www.w3.org/2000/svg" xmlns:xlink="http://www.w3.org/1999/xlink" x="0px" y="0px" viewBox="0 0 233 233"
	 xml:space="preserve">
<path fill="#FAFAFA" d="M224.8,233.1H7.8c-4.4,0-8-3.6-8-8V8.1c0-4.4,3.6-8,8-8h217c4.4,0,8,3.6,8,8v217
	C232.8,229.5,229.2,233.1,224.8,233.1z"/>
<path fill="none" stroke="#000000" stroke-width="2" stroke-linecap="round" stroke-linejoin="round" stroke-miterlimit="10" d="
	M188.3,125.2c0,1-0.9,1.9-1.9,1.9H47c-1,0-1.9-0.9-1.9-1.9V74.1c0-1,0.9-1.9,1.9-1.9h139.4c1,0,1.9,0.9,1.9,1.9V125.2z"/>
<line fill="none" stroke="#000000" stroke-width="2" stroke-linecap="round" stroke-linejoin="round" stroke-miterlimit="10" x1="45.3" y1="116.4" x2="187.5" y2="116.4"/>
<path fill="none" stroke="#000000" stroke-width="2" stroke-linecap="round" stroke-linejoin="round" stroke-miterlimit="10" d="
	M73.3,133.6c0,4.6-2,4.6-2,9.1c0,4.6,2,4.6,2,9.1c0,4.6-2,4.6-2,9.1"/>
<path fill="none" stroke="#000000" stroke-width="2" stroke-linecap="round" stroke-linejoin="round" stroke-miterlimit="10" d="
	M95.4,133.6c0,4.6-2,4.6-2,9.1c0,4.6,2,4.6,2,9.1c0,4.6-2,4.6-2,9.1"/>
<path fill="none" stroke="#000000" stroke-width="2" stroke-linecap="round" stroke-linejoin="round" stroke-miterlimit="10" d="
	M117.4,133.6c0,4.6-2,4.6-2,9.1c0,4.6,2,4.6,2,9.1c0,4.6-2,4.6-2,9.1"/>
<path fill="none" stroke="#000000" stroke-width="2" stroke-linecap="round" stroke-linejoin="round" stroke-miterlimit="10" d="
	M139.9,133.6c0,4.6-2,4.6-2,9.1c0,4.6,2,4.6,2,9.1c0,4.6-2,4.6-2,9.1"/>
<path fill="none" stroke="#000000" stroke-width="2" stroke-linecap="round" stroke-linejoin="round" stroke-miterlimit="10" d="
	M161.9,133.6c0,4.6-2,4.6-2,9.1c0,4.6,2,4.6,2,9.1c0,4.6-2,4.6-2,9.1"/>
<line fill="none" stroke="#000000" stroke-width="2" stroke-linecap="round" stroke-linejoin="round" stroke-miterlimit="10" x1="178.4" y1="105.8" x2="161.7" y2="105.8"/>
</svg>
