<?xml version="1.0" encoding="utf-8"?>
<!-- Generator: Adobe Illustrator 22.0.1, SVG Export Plug-In . SVG Version: 6.00 Build 0)  -->
<svg version="1.2" baseProfile="tiny" id="Слой_1"
	 xmlns="http://www.w3.org/2000/svg" xmlns:xlink="http://www.w3.org/1999/xlink" x="0px" y="0px" viewBox="0 0 233 233"
	 xml:space="preserve">
<g>
	<path fill="#FAFAFA" d="M225,233H8c-4.4,0-8-3.6-8-8V8c0-4.4,3.6-8,8-8h217c4.4,0,8,3.6,8,8v217C233,229.4,229.4,233,225,233z"/>
	<g>
		<path fill="none" stroke="#000000" stroke-width="2" stroke-linecap="round" stroke-linejoin="round" stroke-miterlimit="10" d="
			M159.9,172.9L159.9,172.9c-15.9,0-26.2-10.5-26.2-26.8L131,89.5c0-16.3,12.9-29.4,28.7-29.4l0,0c15.9,0,28.7,13.1,28.7,29.4
			l-2.6,56.7C186,162.4,175.8,172.9,159.9,172.9z"/>
		<path fill="none" stroke="#000000" stroke-width="2" stroke-linecap="round" stroke-linejoin="round" stroke-miterlimit="10" d="
			M135.2,74.3L135.2,74.3c15.5,8.3,33.8,8.3,49.2,0l0,0"/>
		<path fill="none" stroke="#000000" stroke-width="2" stroke-linecap="round" stroke-linejoin="round" stroke-miterlimit="10" d="
			M133.1,122.8c18.2-8.4,35.3-8.4,53.5,0"/>
		
			<ellipse fill="none" stroke="#000000" stroke-width="2" stroke-linecap="round" stroke-linejoin="round" stroke-miterlimit="10" cx="159.9" cy="95.5" rx="7.7" ry="8"/>
		<path fill="none" stroke="#000000" stroke-width="2" stroke-linecap="round" stroke-linejoin="round" stroke-miterlimit="10" d="
			M73.3,172.9L73.3,172.9c-15.9,0-26.2-10.5-26.2-26.8l-2.6-56.7c0-16.3,12.9-29.4,28.7-29.4l0,0c15.9,0,28.7,13.1,28.7,29.4
			l-2.6,56.7C99.4,162.4,89.2,172.9,73.3,172.9z"/>
		<path fill="none" stroke="#000000" stroke-width="2" stroke-linecap="round" stroke-linejoin="round" stroke-miterlimit="10" d="
			M48.7,74.3L48.7,74.3c15.5,8.3,33.8,8.3,49.2,0l0,0"/>
		<path fill="none" stroke="#000000" stroke-width="2" stroke-linecap="round" stroke-linejoin="round" stroke-miterlimit="10" d="
			M46.6,122.8c18.2-8.4,35.3-8.4,53.5,0"/>
		
			<ellipse fill="none" stroke="#000000" stroke-width="2" stroke-linecap="round" stroke-linejoin="round" stroke-miterlimit="10" cx="73.3" cy="95.5" rx="7.7" ry="8"/>
	</g>
</g>
</svg>
