<?xml version="1.0" encoding="utf-8"?>
<!-- Generator: Adobe Illustrator 22.0.1, SVG Export Plug-In . SVG Version: 6.00 Build 0)  -->
<svg version="1.2" baseProfile="tiny" id="Слой_1"
	 xmlns="http://www.w3.org/2000/svg" xmlns:xlink="http://www.w3.org/1999/xlink" x="0px" y="0px" viewBox="0 0 233 233"
	 xml:space="preserve">
<g>
	<path fill="#FAFAFA" d="M225.1,233H8.1c-4.4,0-8-3.6-8-8V8c0-4.4,3.6-8,8-8h217c4.4,0,8,3.6,8,8v217
		C233.1,229.4,229.5,233,225.1,233z"/>
	<g>
		
			<polyline fill="none" stroke="#000000" stroke-width="2" stroke-linecap="round" stroke-linejoin="round" stroke-miterlimit="10" points="
			73.5,88.5 73.5,185.4 159.6,185.4 159.6,88.5 		"/>
		<path fill="none" stroke="#000000" stroke-width="2" stroke-linecap="round" stroke-linejoin="round" stroke-miterlimit="10" d="
			M116.6,44.5L116.6,44.5c14.6,0,26.4,11.8,26.4,26.4V158H90.1V70.9C90.1,56.3,102,44.5,116.6,44.5z"/>
		<path fill="none" stroke="#000000" stroke-width="2" stroke-linecap="round" stroke-linejoin="round" stroke-miterlimit="10" d="
			M116.6,50.5L116.6,50.5c11.4,0,20.7,9.3,20.7,20.7v80.6H95.9V71.3C95.8,59.8,105.1,50.5,116.6,50.5z"/>
		
			<line fill="none" stroke="#000000" stroke-width="2" stroke-linecap="round" stroke-linejoin="round" stroke-miterlimit="10" x1="159.6" y1="109" x2="143" y2="109"/>
		
			<line fill="none" stroke="#000000" stroke-width="2" stroke-linecap="round" stroke-linejoin="round" stroke-miterlimit="10" x1="90.1" y1="109" x2="73.5" y2="109"/>
		
			<line fill="none" stroke="#000000" stroke-width="2" stroke-linecap="round" stroke-linejoin="round" stroke-miterlimit="10" x1="159.6" y1="185.5" x2="159.6" y2="188.5"/>
		
			<line fill="none" stroke="#000000" stroke-width="2" stroke-linecap="round" stroke-linejoin="round" stroke-miterlimit="10" x1="73.5" y1="185.4" x2="73.5" y2="188.5"/>
		
			<line fill="none" stroke="#000000" stroke-width="2" stroke-linecap="round" stroke-linejoin="round" stroke-miterlimit="10" x1="101.1" y1="72.9" x2="111.9" y2="62.1"/>
		
			<line fill="none" stroke="#000000" stroke-width="2" stroke-linecap="round" stroke-linejoin="round" stroke-miterlimit="10" x1="109.2" y1="70.9" x2="120" y2="60.1"/>
		
			<line fill="none" stroke="#000000" stroke-width="2" stroke-linecap="round" stroke-linejoin="round" stroke-miterlimit="10" x1="108.4" y1="78.2" x2="119.2" y2="67.5"/>
	</g>
</g>
</svg>
