<?xml version="1.0" encoding="utf-8"?>
<!-- Generator: Adobe Illustrator 22.0.1, SVG Export Plug-In . SVG Version: 6.00 Build 0)  -->
<svg version="1.2" baseProfile="tiny" id="Слой_1"
	 xmlns="http://www.w3.org/2000/svg" xmlns:xlink="http://www.w3.org/1999/xlink" x="0px" y="0px" viewBox="0 0 233 233"
	 xml:space="preserve">
<g>
	<path fill="#FAFAFA" d="M225,233H8c-4.4,0-8-3.6-8-8V8c0-4.4,3.6-8,8-8h217c4.4,0,8,3.6,8,8v217C233,229.4,229.4,233,225,233z"/>
	<g>
		<g>
			<path fill="none" stroke="#000000" stroke-width="2" stroke-linecap="round" stroke-linejoin="round" stroke-miterlimit="10" d="
				M142.4,104.9h-9.6l-38.5,9.8l8.3,47.3c1.6,6-3,11.9-9.3,11.9l0,0c-4.2,0-7.9-2.8-9.2-6.8l-9.5-47.8c-16.8,0-30.4-13.6-30.4-30.4
				c0-4.7,1.1-9.2,3-13.2c5.9-12.3,19.8-18.6,33.3-15.9l52.1,12.6h9.6"/>
			<g>
				
					<line fill="none" stroke="#000000" stroke-width="2" stroke-linecap="round" stroke-linejoin="round" stroke-miterlimit="10" x1="67.5" y1="82.9" x2="80.6" y2="82.9"/>
				
					<line fill="none" stroke="#000000" stroke-width="2" stroke-linecap="round" stroke-linejoin="round" stroke-miterlimit="10" x1="63.6" y1="89" x2="84.5" y2="89"/>
				
					<line fill="none" stroke="#000000" stroke-width="2" stroke-linecap="round" stroke-linejoin="round" stroke-miterlimit="10" x1="67.5" y1="94.9" x2="80.6" y2="94.9"/>
			</g>
			
				<line fill="none" stroke="#000000" stroke-width="2" stroke-linecap="round" stroke-linejoin="round" stroke-miterlimit="10" x1="142.4" y1="72.4" x2="142.4" y2="104.9"/>
			
				<polyline fill="none" stroke="#000000" stroke-width="2" stroke-linecap="round" stroke-linejoin="round" stroke-miterlimit="10" points="
				142.4,104.9 159.2,109 159.2,67.8 142.4,72.4 			"/>
			
				<circle fill="none" stroke="#000000" stroke-width="2" stroke-linecap="round" stroke-linejoin="round" stroke-miterlimit="10" cx="74.1" cy="89" r="16.2"/>
		</g>
		
			<line fill="none" stroke="#000000" stroke-width="2" stroke-linecap="round" stroke-linejoin="round" stroke-miterlimit="10" x1="176.4" y1="70.7" x2="188" y2="64.8"/>
		
			<line fill="none" stroke="#000000" stroke-width="2" stroke-linecap="round" stroke-linejoin="round" stroke-miterlimit="10" x1="188" y1="111.3" x2="176.4" y2="105.4"/>
		
			<line fill="none" stroke="#000000" stroke-width="2" stroke-linecap="round" stroke-linejoin="round" stroke-miterlimit="10" x1="176.2" y1="89" x2="188.5" y2="89"/>
	</g>
</g>
</svg>
