<?xml version="1.0" encoding="utf-8"?>
<!-- Generator: Adobe Illustrator 22.0.1, SVG Export Plug-In . SVG Version: 6.00 Build 0)  -->
<svg version="1.2" baseProfile="tiny" id="Слой_1"
	 xmlns="http://www.w3.org/2000/svg" xmlns:xlink="http://www.w3.org/1999/xlink" x="0px" y="0px" viewBox="0 0 233 233"
	 xml:space="preserve">
<g>
	<path fill="#FAFAFA" d="M225,233H8c-4.4,0-8-3.6-8-8V8c0-4.4,3.6-8,8-8h217c4.4,0,8,3.6,8,8v217C233,229.4,229.4,233,225,233z"/>
	<g>
		<path fill="none" stroke="#000000" stroke-width="2" stroke-linecap="round" stroke-linejoin="round" stroke-miterlimit="10" d="
			M150.2,188.5H82.9c-11.7,0-21-9.4-21-21V99.1c0-11.7,9.4-21,21-21H150c11.7,0,21,9.4,21,21v68.5
			C171.1,179.2,161.7,188.5,150.2,188.5z"/>
		
			<rect x="104.2" y="65.6" fill="none" stroke="#000000" stroke-width="2" stroke-linecap="round" stroke-linejoin="round" stroke-miterlimit="10" width="24.8" height="12.4"/>
		<path fill="none" stroke="#000000" stroke-width="2" stroke-linecap="round" stroke-linejoin="round" stroke-miterlimit="10" d="
			M109.1,50.9H71.7c-5.3,0-9.7,4.3-9.7,9.7V63h5.3v-1.2c0-2.6,2.1-4.7,4.7-4.7h37.1"/>
		
			<line fill="none" stroke="#000000" stroke-width="2" stroke-linecap="round" stroke-linejoin="round" stroke-miterlimit="10" x1="63.2" y1="112.2" x2="169.9" y2="112.2"/>
		
			<line fill="none" stroke="#000000" stroke-width="2" stroke-linecap="round" stroke-linejoin="round" stroke-miterlimit="10" x1="62" y1="155.9" x2="169.9" y2="155.9"/>
		
			<rect x="109.1" y="44.5" fill="none" stroke="#000000" stroke-width="2" stroke-linecap="round" stroke-linejoin="round" stroke-miterlimit="10" width="14.9" height="21.1"/>
	</g>
</g>
</svg>
