<?xml version="1.0" encoding="utf-8"?>
<!-- Generator: Adobe Illustrator 22.0.1, SVG Export Plug-In . SVG Version: 6.00 Build 0)  -->
<svg version="1.2" baseProfile="tiny" id="Слой_1"
	 xmlns="http://www.w3.org/2000/svg" xmlns:xlink="http://www.w3.org/1999/xlink" x="0px" y="0px" viewBox="0 0 233 233"
	 xml:space="preserve">
<g>
	<path fill="#FAFAFA" d="M225,233H8c-4.4,0-8-3.6-8-8V8c0-4.4,3.6-8,8-8h217c4.4,0,8,3.6,8,8v217C233,229.4,229.4,233,225,233z"/>
	<g>
		<path fill="none" stroke="#000000" stroke-width="2" stroke-linecap="round" stroke-linejoin="round" stroke-miterlimit="10" d="
			M44.5,156.4V99.9c0-6.6,5.3-11.9,11.9-11.9h42"/>
		<g>
			<path fill="none" stroke="#000000" stroke-width="2" stroke-linecap="round" stroke-linejoin="round" stroke-miterlimit="10" d="
				M135.3,117.2v-1.9c0-5.1,4.1-9.2,9.2-9.2h16.7c5.1,0,9.2,4.1,9.2,9.2v1.9"/>
			<path fill="none" stroke="#000000" stroke-width="2" stroke-linecap="round" stroke-linejoin="round" stroke-miterlimit="10" d="
				M63.9,117.2v-1.9c0-5.1,4.1-9.2,9.2-9.2h16.7c5.1,0,9.2,4.1,9.2,9.2v1.9"/>
		</g>
		<path fill="none" stroke="#000000" stroke-width="2" stroke-linecap="round" stroke-linejoin="round" stroke-miterlimit="10" d="
			M44.7,126.2c0-5.1,4.1-9.2,9.2-9.2h125.4c5.1,0,9.2,4.1,9.2,9.2"/>
		
			<circle fill="none" stroke="#000000" stroke-width="2" stroke-linecap="round" stroke-linejoin="round" stroke-miterlimit="10" cx="116.6" cy="87.4" r="17.4"/>
		<path fill="none" stroke="#000000" stroke-width="2" stroke-linecap="round" stroke-linejoin="round" stroke-miterlimit="10" d="
			M108.3,83.4l2.7,1.3c2.1,1,4.6,0.2,5.7-1.8l0,0l0,0c1.3,2.1,3.9,2.8,6.1,1.6l2.2-1.2l-1,6.6h-14.7L108.3,83.4z"/>
		
			<line fill="none" stroke="#000000" stroke-width="2" stroke-linecap="round" stroke-linejoin="round" stroke-miterlimit="10" x1="44.8" y1="127.9" x2="188.5" y2="127.9"/>
		<path fill="none" stroke="#000000" stroke-width="2" stroke-linecap="round" stroke-linejoin="round" stroke-miterlimit="10" d="
			M44.5,156.4h144V99.9c0-6.6-5.3-11.9-11.9-11.9h-41.8"/>
	</g>
</g>
</svg>
