<?xml version="1.0" encoding="utf-8"?>
<!-- Generator: Adobe Illustrator 22.0.1, SVG Export Plug-In . SVG Version: 6.00 Build 0)  -->
<svg version="1.2" baseProfile="tiny" id="Слой_1"
	 xmlns="http://www.w3.org/2000/svg" xmlns:xlink="http://www.w3.org/1999/xlink" x="0px" y="0px" viewBox="0 0 233 233"
	 xml:space="preserve">
<path fill="#FAFAFA" d="M225,233H8c-4.4,0-8-3.6-8-8V8c0-4.4,3.6-8,8-8h217c4.4,0,8,3.6,8,8v217C233,229.4,229.4,233,225,233z"/>
<g>
	
		<polyline fill="none" stroke="#000000" stroke-width="2" stroke-linecap="round" stroke-linejoin="round" stroke-miterlimit="10" points="
		58,166.2 58,53.5 176.1,53.5 176.1,166.2 	"/>
	
		<polygon fill="none" stroke="#000000" stroke-width="2" stroke-linecap="round" stroke-linejoin="round" stroke-miterlimit="10" points="
		183,44.5 50,44.5 50,174.6 183,174.6 	"/>
	
		<line fill="none" stroke="#000000" stroke-width="2" stroke-linecap="round" stroke-linejoin="round" stroke-miterlimit="10" x1="58" y1="169.3" x2="176.1" y2="169.3"/>
	
		<line fill="none" stroke="#000000" stroke-width="2" stroke-linecap="round" stroke-linejoin="round" stroke-miterlimit="10" x1="58" y1="96.3" x2="176.1" y2="96.3"/>
	
		<circle fill="none" stroke="#000000" stroke-width="2" stroke-linecap="round" stroke-linejoin="round" stroke-miterlimit="10" cx="114.6" cy="83.6" r="4.3"/>
	
		<circle fill="none" stroke="#000000" stroke-width="2" stroke-linecap="round" stroke-linejoin="round" stroke-miterlimit="10" cx="143.3" cy="83.6" r="4.3"/>
	
		<circle fill="none" stroke="#000000" stroke-width="2" stroke-linecap="round" stroke-linejoin="round" stroke-miterlimit="10" cx="114.6" cy="83.6" r="10"/>
	
		<circle fill="none" stroke="#000000" stroke-width="2" stroke-linecap="round" stroke-linejoin="round" stroke-miterlimit="10" cx="143.3" cy="83.6" r="10"/>
	
		<line fill="none" stroke="#000000" stroke-width="2" stroke-linecap="round" stroke-linejoin="round" stroke-miterlimit="10" x1="58" y1="102.3" x2="176.1" y2="102.3"/>
	<path fill="none" stroke="#000000" stroke-width="2" stroke-linecap="round" stroke-linejoin="round" stroke-miterlimit="10" d="
		M94.2,169.2H80.7V144c0-2.2,0.4-4.3,1.5-6.4l1.3-3.1c1.5-4.2,2.4-6,2.8-10.5l0.1-2.5h2.1l0.1,2.5c0.3,4.5,1.3,6.3,2.8,10.5l1.2,3.3
		c1,1.9,1.5,4.2,1.5,6.4v25H94.2z"/>
	
		<line fill="none" stroke="#000000" stroke-width="2" stroke-linecap="round" stroke-linejoin="round" stroke-miterlimit="10" x1="80.9" y1="153.8" x2="94.2" y2="153.8"/>
	
		<line fill="none" stroke="#000000" stroke-width="2" stroke-linecap="round" stroke-linejoin="round" stroke-miterlimit="10" x1="80.9" y1="162.5" x2="94.2" y2="162.5"/>
	<path fill="none" stroke="#000000" stroke-width="2" stroke-linecap="round" stroke-linejoin="round" stroke-miterlimit="10" d="
		M116.8,169.2h-13.5V144c0-2.2,0.4-4.3,1.5-6.4l1.2-3.3c1.5-4.2,2.4-6,2.8-10.5l0.1-2.5h2.1l0.1,2.5c0.3,4.5,1.3,6.3,2.8,10.5
		l1.2,3.3c1,1.9,1.5,4.2,1.5,6.4C116.8,144,116.8,169.2,116.8,169.2z"/>
	
		<line fill="none" stroke="#000000" stroke-width="2" stroke-linecap="round" stroke-linejoin="round" stroke-miterlimit="10" x1="103.5" y1="153.6" x2="116.8" y2="153.6"/>
	
		<line fill="none" stroke="#000000" stroke-width="2" stroke-linecap="round" stroke-linejoin="round" stroke-miterlimit="10" x1="103.5" y1="162.3" x2="116.8" y2="162.3"/>
	
		<line fill="none" stroke="#000000" stroke-width="2" stroke-linecap="round" stroke-linejoin="round" stroke-miterlimit="10" x1="172.3" y1="182.4" x2="172.3" y2="188.5"/>
	
		<line fill="none" stroke="#000000" stroke-width="2" stroke-linecap="round" stroke-linejoin="round" stroke-miterlimit="10" x1="62" y1="182.4" x2="62" y2="188.5"/>
</g>
</svg>
