<?xml version="1.0" encoding="utf-8"?>
<!-- Generator: Adobe Illustrator 22.0.1, SVG Export Plug-In . SVG Version: 6.00 Build 0)  -->
<svg version="1.2" baseProfile="tiny" id="Слой_1"
	 xmlns="http://www.w3.org/2000/svg" xmlns:xlink="http://www.w3.org/1999/xlink" x="0px" y="0px" viewBox="0 0 233 233"
	 xml:space="preserve">
<g>
	<path fill="#FAFAFA" d="M233,225c0,4.4-3.6,8-8,8H8c-4.4,0-8-3.6-8-8V8c0-4.4,3.6-8,8-8h217c4.4,0,8,3.6,8,8V225z"/>
	<g>
		<path fill="none" stroke="#000000" stroke-width="2" stroke-miterlimit="10" d="M104.2,71.5h55.9c6.3,0,11.4,5.1,11.4,11.4v75.7
			c0,6.3-5.1,11.4-11.4,11.4H81.8c-6.3,0-11.4-5.1-11.4-11.4v-0.8"/>
		<path fill="none" stroke="#000000" stroke-width="2" stroke-miterlimit="10" d="M95.8,157.5h-26c-4.6,0-8.3-3.7-8.3-8.3V71.5
			c0-4.6,3.7-8.3,8.3-8.3h26c4.6,0,8.3,3.7,8.3,8.3v77.7C104.2,153.8,100.5,157.5,95.8,157.5z"/>
		<rect x="113.2" y="77" fill="none" stroke="#000000" stroke-width="2" stroke-miterlimit="10" width="42.5" height="10"/>
		<rect x="113.2" y="101.9" fill="none" stroke="#000000" stroke-width="2" stroke-miterlimit="10" width="8.3" height="8.3"/>
		<rect x="130.2" y="101.9" fill="none" stroke="#000000" stroke-width="2" stroke-miterlimit="10" width="8.3" height="8.3"/>
		<rect x="147.3" y="101.9" fill="none" stroke="#000000" stroke-width="2" stroke-miterlimit="10" width="8.3" height="8.3"/>
		<rect x="113.2" y="118.9" fill="none" stroke="#000000" stroke-width="2" stroke-miterlimit="10" width="8.3" height="8.3"/>
		<rect x="130.2" y="118.9" fill="none" stroke="#000000" stroke-width="2" stroke-miterlimit="10" width="8.3" height="8.3"/>
		<rect x="147.3" y="118.9" fill="none" stroke="#000000" stroke-width="2" stroke-miterlimit="10" width="8.3" height="8.3"/>
		<rect x="113.2" y="135.8" fill="none" stroke="#000000" stroke-width="2" stroke-miterlimit="10" width="8.3" height="8.3"/>
		<rect x="130.2" y="135.8" fill="none" stroke="#000000" stroke-width="2" stroke-miterlimit="10" width="8.3" height="8.3"/>
		<rect x="147.3" y="135.8" fill="none" stroke="#000000" stroke-width="2" stroke-miterlimit="10" width="8.3" height="8.3"/>
	</g>
</g>
</svg>
