<?xml version="1.0" encoding="utf-8"?>
<!-- Generator: Adobe Illustrator 22.0.1, SVG Export Plug-In . SVG Version: 6.00 Build 0)  -->
<svg version="1.2" baseProfile="tiny" id="Слой_1"
	 xmlns="http://www.w3.org/2000/svg" xmlns:xlink="http://www.w3.org/1999/xlink" x="0px" y="0px" viewBox="0 0 233 233"
	 xml:space="preserve">
<g>
	<path fill="#FAFAFA" d="M225,233H8c-4.4,0-8-3.6-8-8V8c0-4.4,3.6-8,8-8h217c4.4,0,8,3.6,8,8v217C233,229.4,229.4,233,225,233z"/>
	<g>
		<path fill="none" stroke="#000000" stroke-width="2" stroke-miterlimit="10" d="M188.5,89c0,1.6-1.3,3-3,3H47.5c-1.6,0-3-1.3-3-3
			l0,0c0-1.6,1.3-3,3-3h138.1C187.2,86,188.5,87.4,188.5,89L188.5,89z"/>
		<g>
			<g>
				<path fill="none" stroke="#000000" stroke-width="2" stroke-miterlimit="10" d="M83.6,141.1c-24.6,0-32.5-13.9-32.5-38.5"/>
				<line fill="none" stroke="#000000" stroke-width="2" stroke-miterlimit="10" x1="51.1" y1="92" x2="51.1" y2="102.6"/>
			</g>
			<g>
				<path fill="none" stroke="#000000" stroke-width="2" stroke-miterlimit="10" d="M150.4,141.1c24.6,0,31.5-13.9,31.5-38.5"/>
				<line fill="none" stroke="#000000" stroke-width="2" stroke-miterlimit="10" x1="181.9" y1="92" x2="181.9" y2="102.6"/>
			</g>
			<line fill="none" stroke="#000000" stroke-width="2" stroke-miterlimit="10" x1="83.6" y1="141.1" x2="150.4" y2="141.1"/>
		</g>
		
			<line fill="none" stroke="#000000" stroke-width="2" stroke-linecap="round" stroke-linejoin="round" stroke-miterlimit="10" x1="72.1" y1="139.8" x2="72.1" y2="147"/>
		
			<line fill="none" stroke="#000000" stroke-width="2" stroke-linecap="round" stroke-linejoin="round" stroke-miterlimit="10" x1="161.1" y1="139.9" x2="161.1" y2="147"/>
		<path fill="none" stroke="#000000" stroke-width="2" stroke-linecap="round" stroke-linejoin="round" stroke-miterlimit="10" d="
			M51.1,103.6c10.9,0,10.9,6,21.8,6c10.9,0,10.9-6,21.8-6c10.9,0,10.9,6,21.8,6c10.9,0,10.9-6,21.8-6c10.9,0,10.9,6,21.8,6
			s10.9-6,21.8-6"/>
	</g>
</g>
</svg>
