<?xml version="1.0" encoding="utf-8"?>
<!-- Generator: Adobe Illustrator 22.0.1, SVG Export Plug-In . SVG Version: 6.00 Build 0)  -->
<svg version="1.2" baseProfile="tiny" id="Слой_1"
	 xmlns="http://www.w3.org/2000/svg" xmlns:xlink="http://www.w3.org/1999/xlink" x="0px" y="0px" viewBox="0 0 233 233"
	 xml:space="preserve">
<path fill="#FAFAFA" d="M225,233H8c-4.4,0-8-3.6-8-8V8c0-4.4,3.6-8,8-8h217c4.4,0,8,3.6,8,8v217C233,229.4,229.4,233,225,233z"/>
<g>
	
		<line fill="none" stroke="#000000" stroke-width="2" stroke-linecap="round" stroke-linejoin="round" stroke-miterlimit="10" x1="164.9" y1="128" x2="164.9" y2="188.5"/>
	
		<line fill="none" stroke="#000000" stroke-width="2" stroke-linecap="round" stroke-linejoin="round" stroke-miterlimit="10" x1="68.1" y1="188.5" x2="86.8" y2="128"/>
	
		<polyline fill="none" stroke="#000000" stroke-width="2" stroke-linecap="round" stroke-linejoin="round" stroke-miterlimit="10" points="
		164.9,120.3 164.9,128 86.8,128 86.8,120.3 	"/>
	<path fill="none" stroke="#000000" stroke-width="2" stroke-linecap="round" stroke-linejoin="round" stroke-miterlimit="10" d="
		M86.8,120.3L86.8,120.3c0-2.4,2-4.4,4.4-4.4h69.3c2.4,0,4.4,2,4.4,4.4l0,0"/>
	
		<line fill="none" stroke="#000000" stroke-width="2" stroke-linecap="round" stroke-linejoin="round" stroke-miterlimit="10" x1="86.8" y1="120.3" x2="86.8" y2="44.5"/>
	<path fill="none" stroke="#000000" stroke-width="2" stroke-linecap="round" stroke-linejoin="round" stroke-miterlimit="10" d="
		M86.8,90.7L86.8,90.7v-41l0,0c2.6,0,4.7,2.1,4.7,4.7v31.7C91.5,88.6,89.5,90.7,86.8,90.7z"/>
</g>
</svg>
