<svg xmlns="http://www.w3.org/2000/svg" viewBox="0 0 25.31 26"><defs><style>.cls-1{fill:#dededf;}</style></defs><title>Ресурс 19</title><g id="Слой_2" data-name="Слой 2"><g id="Слой_1-2" data-name="Слой 1"><path class="cls-1" d="M17.82,26H7.42A7.42,7.42,0,0,1,0,18.58V7.42A7.42,7.42,0,0,1,7.42,0H17.89a7.42,7.42,0,0,1,7.42,7.42V18.58A7.54,7.54,0,0,1,17.82,26ZM7.42,1.91A5.48,5.48,0,0,0,1.91,7.42V18.58a5.48,5.48,0,0,0,5.51,5.51H17.89a5.48,5.48,0,0,0,5.51-5.51V7.42a5.48,5.48,0,0,0-5.51-5.51Z"/><path class="cls-1" d="M12.62,19.88A6.9,6.9,0,0,1,5.74,13,7.06,7.06,0,0,1,7.88,8,6.76,6.76,0,0,1,12.69,6a7.14,7.14,0,0,1,5.12,2.06,6.53,6.53,0,0,1,1.68,4.82h0a7,7,0,0,1-2.06,4.82A6.43,6.43,0,0,1,12.62,19.88ZM12.46,8.41a4.22,4.22,0,0,0-3,1.22A4.59,4.59,0,1,0,17.21,13a4.93,4.93,0,0,0-1.07-3.21,5,5,0,0,0-3.52-1.38Z"/><circle class="cls-1" cx="19.73" cy="5.89" r="1.61"/></g></g></svg>