<?xml version="1.0" encoding="utf-8"?>
<!-- Generator: Adobe Illustrator 22.0.1, SVG Export Plug-In . SVG Version: 6.00 Build 0)  -->
<svg version="1.2" baseProfile="tiny" id="Слой_1"
	 xmlns="http://www.w3.org/2000/svg" xmlns:xlink="http://www.w3.org/1999/xlink" x="0px" y="0px" viewBox="0 0 167.7 21"
	 xml:space="preserve">
<path fill="#FFFFFF" d="M33.9,12.4l-2.7-6.2l-2.8,6.2H33.9z M35,15h-7.8l-2,4.5h-3L31.3,0L40,19.5h-3L35,15z"/>
<path fill="#FFFFFF" d="M78.6,12.4l-2.7-6.2l-2.8,6.2H78.6z M79.7,15h-7.8l-2,4.5h-3L76,0l8.7,19.5h-3L79.7,15z"/>
<polygon fill="#FF8B00" points="125.3,21 125.3,0.1 135.6,15.6 129,11.3 "/>
<rect x="112.7" y="1.3" fill="#FFFFFF" width="2.9" height="18.5"/>
<polygon fill="#FFFFFF" points="151.4,19.8 151.4,0.1 164.8,14.1 164.8,1.3 167.7,1.3 167.7,20.9 154.3,6.9 154.3,19.8 "/>
<polygon fill="#FFFFFF" points="138.7,1.3 138.7,17.9 141.6,20.9 141.6,1.3 "/>
<path fill="#FFFFFF" d="M95.4,9.8h0.9c0.8,0,3.8-0.1,3.8-3c0-2.7-2.4-2.8-3.7-2.8h-1V9.8z M95.8,1.3c1.5,0,3.4,0.1,4.9,1.1
	c1.8,1.2,2.2,3.2,2.2,4.4c0,2.7-1.7,4.6-4.1,5.2l5.8,7.9h-3.4l-5.3-7.6h-0.5v7.6h-2.9V1.3H95.8z"/>
<path fill="#FFFFFF" d="M13.1,9.9L13.1,9.9l-3.4,0l0.7,1.5l0.6,1.2h2.2H15c-0.4,2.7-2.6,4.7-5.5,4.7c-3.6,0-6.5-2.8-6.5-6.9
	c0-4,2.7-7,6.6-7c3.3,0,5,2.2,5.6,3l2-1.9c-0.6-0.8-1.2-1.4-2-2c-1-0.7-2.8-1.8-5.6-1.8c-2,0-4.8,0.5-6.9,2.8C0.8,5.4,0,7.8,0,10.3
	c0,2.4,0.8,4.8,2.8,6.9c1.6,1.6,3.7,2.7,6.6,2.7c3.9,0,5.9-2.1,6.9-3.5c1.4-2.1,1.7-4.1,1.7-5.9V9.9H13.1z"/>
<path fill="#FFFFFF" d="M57.9,9.9L57.9,9.9l-3.4,0l0.7,1.5l0.6,1.2h2.2h1.8c-0.4,2.7-2.6,4.7-5.5,4.7c-3.6,0-6.5-2.8-6.5-6.9
	c0-4,2.7-7,6.6-7c3.3,0,5,2.2,5.6,3l2-1.9c-0.6-0.8-1.2-1.4-2-2c-1-0.7-2.8-1.8-5.6-1.8c-2.1,0-4.8,0.5-6.9,2.8
	c-1.8,1.9-2.6,4.3-2.6,6.8c0,2.4,0.8,4.8,2.8,6.9c1.6,1.6,3.7,2.7,6.6,2.7c3.9,0,5.9-2.1,6.9-3.5c1.4-2.1,1.7-4.1,1.7-5.9V9.9H57.9z
	"/>
</svg>
