<?xml version="1.0" encoding="utf-8"?>
<!-- Generator: Adobe Illustrator 22.0.1, SVG Export Plug-In . SVG Version: 6.00 Build 0)  -->
<svg version="1.2" baseProfile="tiny" id="Слой_1"
	 xmlns="http://www.w3.org/2000/svg" xmlns:xlink="http://www.w3.org/1999/xlink" x="0px" y="0px" viewBox="0 0 233 233"
	 xml:space="preserve">
<path fill="#FAFAFA" d="M225,233H8c-4.4,0-8-3.6-8-8V8c0-4.4,3.6-8,8-8h217c4.4,0,8,3.6,8,8v217C233,229.4,229.4,233,225,233z"/>
<g>
	
		<polyline fill="none" stroke="#000000" stroke-width="2" stroke-linecap="round" stroke-linejoin="round" stroke-miterlimit="10" points="
		177.3,90.5 153.4,90.5 153.4,155.8 78.8,155.8 78.8,90.5 55.3,90.5 	"/>
	
		<line fill="none" stroke="#000000" stroke-width="2" stroke-linecap="round" stroke-linejoin="round" stroke-miterlimit="10" x1="55.3" y1="84.3" x2="177.3" y2="84.3"/>
	
		<line fill="none" stroke="#000000" stroke-width="2" stroke-linecap="round" stroke-linejoin="round" stroke-miterlimit="10" x1="78.8" y1="85.4" x2="78.8" y2="90.5"/>
	
		<line fill="none" stroke="#000000" stroke-width="2" stroke-linecap="round" stroke-linejoin="round" stroke-miterlimit="10" x1="153.4" y1="90.5" x2="153.4" y2="84.3"/>
	<path fill="none" stroke="#000000" stroke-width="2" stroke-linecap="round" stroke-linejoin="round" stroke-miterlimit="10" d="
		M168.1,83.7c1.5-3.8,5.3-6.6,9.8-6.6c5.9,0,10.6,4.6,10.6,10.2c0,5.7-4.7,10.2-10.6,10.2c-4.5,0-8.3-2.7-9.8-6.5"/>
	<path fill="none" stroke="#000000" stroke-width="2" stroke-linecap="round" stroke-linejoin="round" stroke-miterlimit="10" d="
		M64.9,83.7c-1.5-3.8-5.3-6.6-9.8-6.6c-5.9,0-10.6,4.6-10.6,10.2c0,5.7,4.7,10.2,10.6,10.2c4.5,0,8.3-2.7,9.8-6.5"/>
	
		<polyline fill="none" stroke="#000000" stroke-width="2" stroke-linecap="round" stroke-linejoin="round" stroke-miterlimit="10" points="
		152.9,136 73.7,136 73.7,90.5 	"/>
	
		<line fill="none" stroke="#000000" stroke-width="2" stroke-linecap="round" stroke-linejoin="round" stroke-miterlimit="10" x1="79.2" y1="150.4" x2="153.4" y2="150.4"/>
</g>
</svg>
