<svg xmlns="http://www.w3.org/2000/svg" viewBox="0 0 35.71 21"><defs><style>.cls-1{fill:#dededf;}</style></defs><title>Ресурс 20</title><g id="Слой_2" data-name="Слой 2"><g id="Слой_1-2" data-name="Слой 1"><path class="cls-1" d="M8.67,10.54a1.45,1.45,0,1,0,0,2.89,1.45,1.45,0,0,0,0-2.89Z"/><path class="cls-1" d="M26.53,10.54A1.45,1.45,0,1,0,28,12,1.49,1.49,0,0,0,26.53,10.54Z"/><path class="cls-1" d="M8.84,7.74a4.34,4.34,0,1,0,4.34,4.34A4.3,4.3,0,0,0,8.84,7.74Zm0,7.31a3,3,0,1,1,3-3A3,3,0,0,1,8.84,15ZM35.71,3.32h-6A21.38,21.38,0,0,0,17.85,0,22.06,22.06,0,0,0,5.7,3.32H0A8.29,8.29,0,0,1,1.79,6.89a8.44,8.44,0,0,0-1.7,5.19A8.93,8.93,0,0,0,9,21a8.71,8.71,0,0,0,6.89-3.32,17.17,17.17,0,0,1,2,2.81s1.28-1.87,2-2.81A8.71,8.71,0,0,0,26.7,21a8.93,8.93,0,0,0,8.93-8.93,8.44,8.44,0,0,0-1.7-5.19A7.86,7.86,0,0,1,35.71,3.32ZM8.93,19.21a7.14,7.14,0,1,1,7.14-7.14A7.08,7.08,0,0,1,8.93,19.21ZM9,3.15a22.77,22.77,0,0,1,8.84-1.7,21.49,21.49,0,0,1,8.59,1.7,8.92,8.92,0,0,0-8.59,8.93A8.91,8.91,0,0,0,9,3.15ZM26.78,19.21a7.14,7.14,0,1,1,7.14-7.14A7.18,7.18,0,0,1,26.78,19.21Zm0-11.48a4.34,4.34,0,1,0,4.34,4.34A4.35,4.35,0,0,0,26.78,7.74Zm0,7.23a3,3,0,1,1,3-3A3,3,0,0,1,26.78,15Z"/></g></g></svg>